<?xml version="1.0" standalone="no"?>
<!DOCTYPE svg PUBLIC "-//W3C//DTD SVG 1.1//EN" "http://www.w3.org/Graphics/SVG/1.1/DTD/svg11.dtd">
<svg xmlns="http://www.w3.org/2000/svg">
<metadata>Copyright (C) 2015 by original authors @ fontello.com</metadata>
<defs>
<font id="glorantha_runes" horiz-adv-x="1000" >
<font-face font-family="glorantha_runes" font-weight="400" font-stretch="normal" units-per-em="1000" ascent="850" descent="-150" />
<missing-glyph horiz-adv-x="1000" />
<glyph glyph-name="man" unicode="&#x2c;" d="m615 341q-13-19-45-17-9 9-23 15l-11-8-39-3q-13-1-22 1t-16 5q-43-7-85 0-3-6-9-32t-6-32q0-15 41-26 48-11 55-24 0-11-3-20l5-10q8 2 17 4t18 6q5-5 13-10t19-10q7-16 35-41 16-16 22-36 8-26 15-38l-9-10q-9 4-24 2-20-3-24-3-20 0-26 26-3 11-38 42-20 17-31 29t-15 17q-94 17-96 17-8 0-18-1t-22-4-23-3-18-2h-8t-8 1q-4-1 4-17-5-3-14-10t-24-19q-20-17-41-25l8-15q-5-19-12-35l-18-2q-9 0-25 2t-28 1q-2 8-2 10-1 2-1 4 0 33 21 63 5 8 16 20t28 28l23-5q5 15 18 29t35 24l70 30 1 69q-10 7-45 7-2 0-8 0t-18-2q-7-1-12 0t-11 1q-12 1-25 11-23-14-53-14-5 0-12 1t-18 1q-11 1-18 2t-12 0l-6 15 2-1 2 6q0 7-5 21t-6 18q7 10 39 10 55 0 78-26 11 15 24 25l18-3q6 0 15 1t19 3l19 3t15 1q-10 9-20 19t-20 20-14 24-6 29v5q13 3 21 9-13 0-19 11 15 50 48 73l5-2q20 23 59 23 45 0 74-27 1-5 2-10t2-14q22-19 26-27 9-14 9-37 0-41-14-55-27-27-29-30l-14-7q6-2 38-2 21 0 39-26 1 13 16 24h15q46 0 61-11 16 10 57 13 0-11 1-28t1-41z m-288 212q-9 0-17-4t-16-12-11-16-5-18q0-8 8-11 4-18 26-27 28-11 34-16v2q0 9 15 21 16 12 16 20 0 39-15 48-22 13-35 13z" horiz-adv-x="665" />
<glyph glyph-name="fire" unicode="&#x2e;" d="m712 321q-15-24-20-66-8-2-12-5-6-10 0-17 5-1 10-9l-9-28q-18-22-60-61-49-46-62-47-6 0-37 23 1-2 1-6v-7t1-11q1-15-6-19-7-1-16-3t-23-8q-26-9-38-9-14 0-25 8l-12 29-13-31q-17-6-35-6-17 0-47 6-17 4-29 6l-20 2q-172 95-194 221-7 18-15 49-1 5-1 11t-1 13q0 23 5 60t12 89q5 8 11 20l14 28q16 6 37 50 13 6 28 13t14 16q0 3-1 5 20 39 74 60 48 19 110 19 53 0 90-14l21-20q4 3 11 7t15 9h7q9-9 36-22 26-12 32-24 13-9 21-41 9-33 24-40 5-24 18-23 9 4 20 4 36 0 53-71 12-51 12-124v-20t-1-16z m-118 103q-8 33-21 48-18 54-18 62 0 6 2 14-3-2-7-4t-10-6l-5 1q-8 7-21 14t-33 15-32 15-21 12q-5-1-12 1t-14 5-15 5-11 2q-10 0-17-6-24-3-37 22-14-36-36-36-17-13-29-21l-18-12q-26-16-54-19l-2-25 5-8q-12-28-22-29-6 0-20 7l27-33q-12-20-23-118 9-11 78-114l62-27q20-8 30-20t14-25q5 4 12 9t17 9q5-4 14-4 6 0 17 3t17 2q11 0 19-7l2-1q4 1 9 6t10 11 8 10 7 6q74 24 110 98 9 9 14 46 3 33 16 40z m-151-10q3-37-8-46 9-5 9-13 0-14-25-27-25-14-47-14-17 0-25 8t-14 34q-4 21-19 29 2 17 15 32t28 14q13 0 22-12l3 17q1 12 12 12 18 0 49-34z" horiz-adv-x="768" />
<glyph glyph-name="moon" unicode="&#x2f;" d="m727 390q-5-5-10-14t-13-23q4-16 4-34 0-66-57-127-5-5-32-29t-77-69q-6-1-15-4t-20-9q-23-11-35-12-6-12-19-18-2 6-5 12t-8 10l-22-5-9 6q-11-2-20-11-14-14-17-16-28 17-59 13-22 13-43 15l7 26q-22-2-32-12-12-2-32 4-4 22-53 36l-46 61q-17 22-24 41t-7 32q0 5 2 15-15 4-23 21 3 20 7 41t0 39l-16 14q7 15 16 53l-19 28 61 92q21 32 40 52t32 27q3 2 40 16 24 9 34 23 13-2 50 11 40 13 51 23 7-4 50 5 8-6 22-14t32-20l12 10q61-17 108-48 63-41 70-90l-9-21 7-10 20 4 17-8q12-21 22-67 10-53 18-69z m-147 119q-5 11-23 35-14 20-18 41-2 10-19 20-1-1-5-1t-31 12q-26 12-49 10-9-18-11-65-1-48-9-68l-6-9 5-9q10-11 10-32 0-9-3-28t-3-30q0-14 4-23 4-13-3-31 12-21 12-59 0-7 0-18t-2-25-1-24-1-17q0-29 6-45l15 22q15 2 64 34l53 36 24 61q11 29 16 56t4 49q0 59-31 99z m-223-180q-8-3-20 1-7 38-7 68 0 37 10 63-12 35-1 108-5 2-5 9t6 22 6 18q-16 2-40-14l-37-24q-27 11-29 11l-5-32q0-1-18-31-14-21-22-24-8-12-23-26-22-22-22-71 0-15 3-52 2-18 3-32t-1-25q6-8 19-22t32-34q14-15 24-27t13-22q9 0 21 5 11-8 21-15t21-14q34-22 43-21-2 10-4 27t-3 41-2 42-3 27q4 12 9 23t11 21z" horiz-adv-x="776" />
<glyph glyph-name="zero" unicode="&#x30;" d="m439 219l-46 76-39-77z m-60 412q10 10 33 15 50-62 62-117l16-5q19-25 19-43 0-11-5-26 8-5 19-12t24-18q46-82 98-174t108-197l-15 2q-10 2-24 1t-32-3q-42-3-58-3-35 0-57 7 2-3 3-4t-1 1q-1 0-2 1-47-3-180-3-80-1-124 0t-56-1l-12-1q-63 3-145 0 3 29 37 82 35 55 58 59-3 22 47 110 29 52 46 81t18 36l22 18q5 18 17 42t30 55q22 37 36 62t18 35z m215-445h-15q-11 13-11 15 0 1 1 2-1 2-13 14-2 7-8 16t-6 13q0 5 3 10-2 9-11 18-17 23-64 113-38 74-73 106-4-7-68-113-22-35-36-64t-23-55q-5-15-23-26-24-14-29-20 4-27-48-97 7-10 40-10h46q4-2 6-2 5 0 12 7l5-17 9-8q-3 15 0 23 19 2 66 5t121-6l24-3 12-19q10 30 44 30l49-1h24l-36 53z m-69-15q0-1-1-2t-2-1-2-3q-35 0-38-1-8-3-8 0-22 6-88 3-29-1-51-3t-39-4q-6 4-10 5l-4-4-4 4-4-4h-2l67 129 42 87 23 14-3-4q31-52 62-105t62-111z" horiz-adv-x="802" />
<glyph glyph-name="moon-dying" unicode="&#x31;" d="m543 361q1-23-12-45-4-3-4-7 0-3 4-9t3-9q3-20-22-64-5-3-9-10t-8-16-8-15-10-11q-12-7-31-21t-46-37q-13 3-26-10t-26-10q-10-1-26-10-4-2-7-2t-8 3-9 3q-4 0-9-5-5 0-14 8t-15 5q-11-21-42-12-17 7-32 12t-29 7q-2 9 8 16l15 12-2 2q-3-1-17-5t-39-12q-3 1-8 6t-12 11-12 10-13 6q-14 4-24 25-11 25-16 31-10 8-13 27-11 16-11 27 0 8 4 12-16 6-17 18 1 28 14 36-1 2-1 26 0 16-11 22 7 7 15 28-7 16-8 48l26 41q5 7 23 24t46 48l12 13q6-3 10-3t9 4 10 7 10 7 9 3q15 1 30 3t21 14q63 17 101 11l7-13q5 0 9-6t6-6 6 3 7 6q5 3 9-1l4-6t6-1q5 2 14-3t13-6q16-8 27-14t16-10q22-15 31-37 33-30 30-48l-10-14q8 0 17-4 6 6 12 3 4-1 4-7t3-9q2-15 7-37t9-53z" horiz-adv-x="543" />
<glyph glyph-name="moon-crescent-go" unicode="&#x32;" d="m472 197q-8-23-54-51-6-8-28-18-21-11-27-24-5-8-21-6-16 1-22-8-6-2-12 6t-10 7q-3 0-7-3-6 0-13 7l-30-21q-9-2-26 4t-27 2q-10 4-22 19 3 4 5 20-3 5-7 5-2 0-7-3t-9-4q-6-1-13-2t-17-6q-4 9-25 19-20 11-24 20-22 26-53 81l3 24q-18 3-20 21 7 7 6 30-2 23 3 31-7 6-7 17 0 6 3 19t3 19q0 13-7 20t-7 13q0 9 14 23 15 16 16 23 10 19 33 45 18 23 37 43 9-1 27 7 7 16 36 16 28 1 36 18l10 5q5 4 12-1 36 18 69 9l24-25q3-3 6-3 2 0 7 4t7 4q9-3 24-7t35-10q19-1 39-23 23-27 33-34 0-2 12-18 8-13 8-21t-6-14l10-5q6-3 11 3 3-1 14-27 1-5 4-15t7-26q8-29 8-42 0-19-11-35-2-6-2-7 0-5 5-14t4-14q0-17-22-51-10-14-18-26t-17-20z m-207-20q-11 5-23 15-2 11-13 14-2 0-20 23-1 3 8 8t7 11q-5-2-15 0-6 1-7 3t-2 5 1 7-2 10q-11 16-11 24 0 4 6 11t5 11q-11 2-21 8-1 1-3 26-3 37-3 35 0 6 8 17l8 12t4 8 2 7 2 9q3 3 7 4t8 3 7 5 6 11q-10 4-10 13 0 4 1 11t17 21q6 5 13 12t15 13l5-1q-50 6-68-18-14-8-48-3-1-25-35-53-28-22-28-72 0-9 3-43-3-5-2-29 0-18-11-23 8 2 19-12 3-9 27-30 20-17 16-35 5-17 18-17 3 0 10 1t10 1q11 0 17-8 4 3 10 3 4 0 10-3t12-6l12-7t10-4q5 3 10 2 6-2 8 0z" horiz-adv-x="533" />
<glyph glyph-name="moon-full-half" unicode="&#x33;" d="m528 288q-17-50-56-91-8-23-54-51-6-8-28-18-21-11-27-24-5-8-21-6-16 1-22-8-6-2-12 6t-10 7q-3 0-7-3-6 0-13 7l-30-21q-9-2-26 4t-27 2q-10 4-22 19 3 4 5 20-3 5-7 5-2 0-7-3t-9-4q-6-1-13-2t-17-6q-4 9-25 19-20 11-24 20-22 26-53 81l3 24q-18 3-20 21 7 7 6 30-2 23 3 31-7 6-7 17 0 6 3 19t3 19q0 13-7 20t-7 13q0 9 14 23 15 16 16 23 10 19 33 45 18 23 37 43 9-1 27 7 7 16 36 16 28 1 36 18l10 5q5 4 12-1 36 18 69 9l24-25q3-3 6-3 2 0 7 4t7 4q9-3 24-7t35-10q19-1 39-23 23-27 33-34 0-2 12-18 8-13 8-21t-6-14l10-5q6-3 11 3 3-1 14-27 1-5 4-15t7-26q8-29 8-42 0-19-11-35-2-6-2-7 0-5 5-16t3-18z m-259-19q-7 7-10 22 5 17 3 43-1 25-1 36t-1 7l5 10q2 6 2 10 0 3-3 9t-8 12-7 12-3 11q2 14 13 17 6 13 6 37v38q-50 6-68-18-14-8-48-3-1-25-35-53-28-22-28-72 0-9 3-43-3-5-2-29 0-18-11-23 8 2 19-12 3-9 27-30 20-17 16-35 5-17 18-17 3 0 10 1t10 1q11 0 17-8 4 3 10 3 4 0 10-3t12-6l12-7t10-4q3 2 11 2t9 6q-5 15-5 29 0 11 3 29 4 20 4 28z" horiz-adv-x="533" />
<glyph glyph-name="moon-full" unicode="&#x34;" d="m541 359q0-1-3-4t-6-7-6-9-3-9q0-8 4-20t4-20q0-6-1-9-8-16-23-38t-37-54q-8-20-36-36-34-18-41-30-13 1-28-11-13-12-28-10-3-1-6-7t-9-7q-1 7-10 17-3 1-9-1t-9-3q-4 0-7 6-5 1-9-2t-7-7l-7-8t-7-4q-5 0-11 3-6 8-18 8-3 0-9-1t-9-1q-13 0-19 9-15 0-15 4 1 4 2 9t3 11q-8 3-15-3t-10-7q-2 0-6 2-18-6-20 2-1 12-17 18-7 2-11 4t-8 4l-6 3q-5 10-21 23t-18 28l-14 27q-9 16-9 28 0 4 2 12-19 6-19 18 0 4 1 7 1 5 4 20t3 21-2 15q-13 0-13 11 0 3 1 5 8 5 10 16t2 22q-3 4-6 10t-9 13q5 5 10 15t10 23q17 35 86 98 14 0 20 11 28 4 39 21 6-3 11-3 9 0 26 13 16 10 28 7 5 0 16 9 9-3 21 0 15 4 19 4 7 0 12-5 7-10 31-21-1 7 10 7 6-2 34-7 20-2 31-14 7-11 36-31 28-19 37-36 10-29-3-39-2-5 6-7 1 1 4 1h5t7 1q10 1 13-5 14-27 22-76 1-5 3-14t7-20z m-95-9q2 27-6 59 3 11-4 21t-14 17q2 6 2 8 0 7-10 13t-10 13q-9 9-12 34-3 26-16 33l6-22q2-8-6-11-6-2-12 0-32 20-48 20-5 0-11-2-4-7-4-18 0-8 3-23t2-22q0-22-22-29-8-7-1-13 22-9 22-34 0-5-1-16t-1-17q0-14 4-22 3-8-4-14t-8-13q11-20 11-50v-8t-1-12v-19q0-24 6-42 9-4 16 3 6 0 13 4t13 7 12 8 10 5q11 8 23 16t23 4q-2 6-2 11 0 7 7 19t8 18q2 4 5 27 2 4 3 11t2 14 1 13 1 9z m-201-40q-7-2-16 1-11 68 3 106-10 26-1 86-8 3-8 15 1 10 1 15t0 3q-6 2-8 2-3 0-7-3t-9-6-9-7-7-5q-5-6-9-6-3 0-11 6t-12 3q-1-4-2-10t-2-16q-6-5-14-23-8-17-18-21-1-6-20-23-15-12-12-27 9-50 3-95-11-17-11-19 10 2 12 2 18 0 30-25 7-16 13-25t10-11q3-4 6-10t7-15q4-3 17 4l25-15q18-8 28-7-2 10-2 15 0 10 5 31t4 30q0 5-2 15 6 19 16 35z" horiz-adv-x="541" />
<glyph glyph-name="moon-empty-half" unicode="&#x35;" d="m516 323q-1-5 1-11t5-12 5-11 2-8q0-7-9-14-1-6-6-14l-9-12q-8-20-29-41-29-31-33-37-10-8-22-17t-30-20l-26-16t-27-16q-5-3-10-3t-13 5-12 4q-6 0-11-4-5 0-9 5t-6 6q-10-21-25-22-53 6-83 19 0 5 8 12t7 11q0 4-1 5-5 5-8 5t-11-4-14-4q-20-12-21-12-3 0-4 2t-4 4-10 7-20 7q-21 6-21 22-1 3-6 6t-7 6q-3 15-21 40-16 22-16 39 0 4 2 12-5 7-13 12t-4 14q0 9 4 25t3 24-1 11l-8 4t-3 7q0 8 4 24t3 23q0 12-4 20-2 8 4 17t11 15q8 14 17 28l18 28q21 33 46 49 11 0 30 14 19 15 30 15 7 0 10-1 52 29 112 32 1 4 12 1l17-22q2 0 7 5t7 4q3 0 5-3 6-3 19-5t19-6q4 1 10-1t10-6 9-7 7-3q4 0 7 1 6-3 12-8t11-12 10-11 10-7q9-12 20-24t9-29q-4-12-4-13 4-3 16-1 9 3 14 1 2-11 7-27t12-37q-1-3-1-8 0-7 5-21t4-22q0-5-2-13-1-6-10-12t-7-14z m-76-3q6 61-7 94-2 7-4 18t-6 24q-7 1-12 11-4 14-6 16-12 6-15 26-3 23-11 31-1-3-1-7-1-3-1-8t-1-11q-3-3-7-3-5 0-14 6t-14 5q-1 1-4 6t-8 3q-5-3-10-3-6 0-16 4t-16 3q-9 0-16-10-1-6 3-16-6-4-9-22-2-17-12-20 6-14 5-33l-3-35q-1-4-1-7t-1-7q0-6 3-24 3-12 1-24 14 2 16-3t2-8q0-10-18-29-10-11-10-29 0-20 10-39l-3-28q-1-15 4-27 5-1 9-1t9-1q6 0 15 2t19 4 19 5 14 2q46 34 74 40 3 4 1 12-3 7-1 13 18 17 23 70z" horiz-adv-x="535" />
<glyph glyph-name="moon-crescent-come" unicode="&#x36;" d="m516 323q-1-5 1-11t5-12 5-11 2-8q0-7-9-14-1-6-6-14l-9-12q-8-20-29-41-29-31-33-37-10-8-22-17t-30-20l-26-16t-27-16q-5-3-10-3t-13 5-12 4q-6 0-11-4-5 0-9 5t-6 6q-10-21-25-22-53 6-83 19 0 5 8 12t7 11q0 4-1 5-5 5-8 5t-11-4-14-4q-20-12-21-12-3 0-4 2t-4 4-10 7-20 7q-21 6-21 22-1 3-6 6t-7 6q-3 13-21 40-16 22-16 39 0 4 2 12-5 7-13 12t-4 14q0 9 4 25t3 24-1 11l-8 4t-3 7q0 8 4 24t3 23q0 12-4 20-2 8 4 16t11 16q7 15 17 29t18 27q21 33 46 49 11 0 30 14 19 15 30 15 7 0 10-1 52 29 112 32 1 4 12 1l17-22q2 0 7 5t7 4q3 0 5-3 6-3 19-5t19-6q4 1 10-1t10-6 9-7 7-3q4 0 7 1 6-3 12-8t11-12 10-11 10-7q9-12 20-24t9-29q-4-12-4-13 4-3 16-1 9 3 14 1 2-11 7-27t12-37q-1-3-1-8 0-7 5-21t4-22q0-5-2-13-1-6-10-12t-7-14z m-76-3q6 13 6 33 0 28-13 61-2 7-4 18t-6 24q-7 1-12 11-4 14-6 16-12 6-15 26-3 23-11 31-1-3-1-7-1-3-1-8t-1-11q-3-3-7-3-5 0-14 6t-14 5q-1 1-4 6t-8 3q-5-4-12-4-4 0-13 3t-15 3q-8 0-15-3 7 2 17-7t17-22q12-3 16-19 2-8-10-18 6-8 14-7t9-11q9-12-9-21 0-4 6-6t10-5q-3-10 11-10l-2-28q13-18 11-31-1-4-4-9t-3-15q-5-11-9-28-3-11-28-7 0-3 3-6t7-7 8-7 3-4q-2-7-10-15t-10-17q-5-14-26-27 0-6-2-9t-7-6-9-6-8-10q13-1 37 5 14 4 23 6t14 2q6 2 15 7t19 10q7 5 17 11t23 12q3 4 1 12-3 7-1 13 12 10 15 34 4 26 8 36z" horiz-adv-x="535" />
<glyph glyph-name="moon-black" unicode="&#x37;" d="m536 376q0-7-3-19-2-4-5-8t-9-10q1-7 9-18t5-21q2-12-5-24-5-9-7-15t-3-8q-4-8-11-17t-17-22q-20-24-27-39-2-1-50-41-4-4-11-3-9 2-10 1-8-14-26-23t-37-17q-4-1-7 4t-6 4-3-1q-8-5-14-1-2 1-3 7t-6 5q-4-1-9-8-2-6-20-16-3-1-10-1-6 0-20 4t-24 2q-1 2-11 8t-11 11q0 2 5 14 1 4 0 9-6 2-8 2-4 0-9-3t-11-8-10-7-8-4q-5 0-9 3-9 16-41 22-17 9-31 38-14 31-25 39-12 19-12 28 0 5 3 9t2 6q-22 4-25 17-1 5 3 13t3 11-1 5q-1 6 3 17t3 16q0 10-10 14-1 6 5 11t3 11q0-2 1 2t1 14q2 12-4 16-4 1-13 15 10 18 21 50 5 5 11 14t14 20q15 11 38 46 16 9 15 9 1 0 7-2 3 0 4 5t2 5q19 19 44 19 9 0 20-3 4 5 12 12t18 14q11 14 35 9 8-4 14-2 4 2 10 4t13 6q13-7 30-22l11-5q2 2 4 6t6 7q6 1 16-7 16-2 38-15 21-13 36-16 6-5 14-12t18-16l32-27q5-23-7-38 5-3 16-1 13 3 14 2 6-1 4-16 3-3 5-10t3-15 4-15 5-12q0-14 9-38z" horiz-adv-x="536" />
<glyph glyph-name="chaos" unicode="&#x3f;" d="m673 548q0-8-6-18t-6-15q0-2 3-15 3-14 3-16 0-14-13-39-12-25-25-35 1-5 2-8t0-7q0-34-64-80 2-14 4-27t1-25q0-44-17-67-9-3-16-3 2 0-50 12 0-8 30-21 1 4 6 7 27-2 27-22 0-27-45-64-44-37-75-37-13 0-18 8-9 15-12 18-4-8-4-43h-56q-3 0-18 6l-17 7-17 14h-11t-17 1q-30 10-56 43-27 34-31 62-3 18-3 16v19q4 1 10 2t6 10h-25l2 1q-1 20-1 29t-1 3q0 27 6 60-50 35-81 89-29 53-29 99 0 29 12 52-21 10-21 29 0 17 17 49 13 0 33 3 31 6 26 6h18q11-6 11-31 0-13-8-56-4-20-5-32t-2-18q0-7 18-26 4-11 8-21t9-22q10-25 36-43 6 12 26 32 21 21 33 21h14q7-6 12-18t8-24h1q7 11 13 23t12 23q11 14 36 14 5 0 19-1t39-6q2-12 13-22t20-11q1 0 6 3t7 2q4 0 21-14t24-14q5 0 17 20 7 14 18 39t24 58v4t1 7q-12 11-16 46-5 37-17 49 0 4 1 6v4q7 3 13 3 1 0 30-6 28-6 31-6-1 0 38 14 2-7 5-22t5-41q0-7 4-21t4-16z" horiz-adv-x="723" />
<glyph glyph-name="dragonewt" unicode="&#x41;" d="m732 356q0-11-12-11-16-2-18-5-4 4-15 4-4 0-13-2t-13-2q-15 0-19 15-10-19-39-16-36 4-45 0 4-4 18-29 14-26 13-38 13-11 27-39 15-32 24-42-3-42 50-84 16-28 16-37 0-6-3-10-8-1-20-3t-30-8q-32 1-39 3-23 5-35 15-8-17-28-17-4 0-7 1t-9 1q-2-1-6-1 1 0-1 0t-7-2q-4-1-9 4-11 11-13 11-6 0-10-3-8-8-31-8-5 0-13 5-1 7-8 7-4 0-13-6-3-6-10-3l-11 2q-4 4-13 4-6 0-18-4t-19-4q-3 0-9 2-72-3-132-3-45 0-84 2t-71 3q-4 4-4 11 0 8 33 59 13 20 24 39t18 38q11-2 28 6-4 9-4 23 0 13 5 28t18 32l37 48q-18-1-52 6-11-8-27-8-9 0-25 3t-25 3q-17 0-27-8-7 8-7 19 0 1 2 8t3 21q4 16-2 27l1 18q55 2 124-16 7 18 28 18 7 0 30-4 25-2 27-1 7 22 22 35t14 29q2 6 14 13 14 8 14 10 0 5-6 11 1 11 21 40 19 28 18 42 2 7 9 16t16 19q17-3 26-23l14-32q-2-8 10-23 13-15 12-22 10-6 10-15 0-5-2-13t-2-14q0-11 19-10 3-3 27-58 6-5 39-6 34-2 41-11l30 9q10 0 16-8 14 13 35 13 7 0 20-1t19-2q14 0 23 4 9-6 9-19 0-7-5-22-2-2-2-8 0-5 5-18 5-4 4-8z m-319 80q-7 5-15 23-7 18-14 23-11-14-18-48 2-4 5-8 5-7 10-5 1 3 6 5t11 3 10 3 5 4z m164-297q-34 62-61 89-4 13-4 22 0 5 2 7 8 2 8 20-8-3-11-3-14 0-24 24-9 15-20 23 2 14-6 17-1 1-18-1t-38 18q-10 10-22 9l10-14q-6-12-21-12-6 0-18 3t-18 2-9-1q-26-26-54-85-3-8-21-15-19-8-20-15 2-6 2-11 0-11-19-36-18-24-20-35 11-1 26-2t31-3q9-1 17-6 4-16 13-16 1 0 18 12t25 9q8-2 12-2 3 0 10 1t15 3 14 2 12 1q11-5 35-6 27 0 37-7 5-11 12-11 5 0 13 3t13 2q8 0 13-9 8 15 29 18z" horiz-adv-x="782" />
<glyph glyph-name="beast" unicode="&#x42;" d="m741 646q-10-17-23-44t-31-65q-5-1-9-1t-9-3q3-11-33-86-14-31-26-53t-20-37q-17-8-39-62-21-49-37-45l-6-8q0-6 1-10t0-7q0-4 1-5 0-2-39-60-8-11-19-34t-25-57q-9-21-28-18-5 17-29 50-23 34-25 52-23 8-18 31 5 29-1 36 1 28-7 38l-4-19q-4-13-12-13-44 47-41 83-29 22-55 58t-53 85l-54 101q-50 92-50 94 1 2 2 5t2 6q14 2 35-9 20 21 69 17 3-2 99 0 67 0 94-13l11 10 91 1q8 0 21 2t18 1q26 0 38-31 8 1 28 26l80-1q4-6 9-7 3 0 15 6 9 4 15 3 6 0 20 1t18 1q25 0 26-19z m-187-58q-17 2-44 13-30-11-95-11-51 0-60 11l-16 19q-17-23-47-29-12-4-56-5 6-8 22-17t20-16q25-6 56-27l53-34q5-3 23 4 17 7 25 7 5 0 7-1 3 15 35 32 33 16 37 26 8 4 18 11t22 17z m20-90q-14-11-45-27-13 8-21 5-3-15-41-41t-36-40q6-35 6-31 0-13-11-18 19-4 19-23v-10q-1-5-1-11 0-9 5-17 11 15 40 44-1 4-1 7t-1 7q0 17 15 37 9 1 17 19 4 9 7 14t6 10 7 8 8 12l-1 7q11 8 28 48z m-202-219q2 11-2 22 8 14 8 28 0 13-11 38t-11 36q0 10 4 18-13-2-24 10t-20 24q-21 4-50 27-33 29-46 33 10-25 43-71-1-4-3-10t-8-14h11q25-15 63-77t42-65z" horiz-adv-x="791" />
<glyph glyph-name="bear" unicode="&#x43;" d="m439 562q-9-4-18-12t-21-20q-12-14-21-22t-16-12q-13 0-25-4 4-5 4-11 0-11-14-25l-21-20-5 1q-2-1-7-5t-16-15q-24-5-36-1 4-7 4-15 0-19-47-54 7-5 21-21 14-17 24-20 6-10 9-20-5-5-6-11 4-5 9-10t11-13q4 1 20 1 19-10 75-74 1-5 5-15 10-3 29-20l28-26 1-6q-5-9-24-27-19-16-22-31-15-5-20-3l-18 9q-16 33-16 31 0 5 13 28-15-2-33-9-26 11-30 31-8 5-12 19-4 16-11 18-17-2-42 22t-25 39q9 4 19 12l-2 2q-9-2-51 7-81 61-72 83l31 29q20 18 34 23 1 7-2 14-21 18-21 27 0 7 4 15 0 6-2 12-6 2-14-1l-13-5q-9 5-47 48 5 5 14 12t19 14l7-3q2 10 5 21t12 12q13-8 42-44 24-30 46-39l9-12 6-1q4 7 30 30l-30 28q-10 9-14 18t-5 16q-15-2-47 35l-1 3q3 4 11 9 2 6 15 12t15 12q-2 15 7 25 10-13 31-30 3-3 7-7t7-12l-5-6-2-1q0-6 17-15 5 9 11 11 6-6 16-17t24-28q20 5 23 15-7 3-8 10l15 16q-17 13-22 33-9-1-30 16-19 18-26 19l-12 27q17 31 28 29 8 18 17 23l8-1 45-46q0-7 7-13 22 4 31-31l-2-8 2-8q5 5 10 5 9 0 23-12 5-5 10-9l10-8q4-5 9-12t10-17q-2-8-6-14z" horiz-adv-x="496" />
<glyph glyph-name="heler" unicode="&#x45;" d="m649 386q-22-3-60 2-31 4-49 3l-6 3-19-11-6 2q-4-7-9-13t-12-13l-8 4q-5-54-52-131-71-113-75-123l-21-5 7-14-9-40-94 8-2 7q0 14 30 61 30 48 43 54l-6 9 23 43q12 23 33 32-1 29 22 74 24 43 24 52-15 2-33 3t-38-1l-30-1q-15-16-17-16-2-2-21 0l-22-5q15-11 19-29-8-23-39-60-30-36-40-57l-86 5q29 48 44 53l-12 8q3 12 61 96-11 1-25 1t-33-2l-57-4-24 3 21 91 35-4q6-14 9-14l2 4q5 2 13 4t15 4 15 4 11 1q37-1 92-1t130-1q6-4 11-8t9-12q2 0 10 8l2 11q9 10 39 10 13 1 48-6 43-8 51-16l52 13q52 1 81-15 13 10 42 15t73 2l20-1-1-75q-10 1-22 2t-29 2q-34-2-38-11-30-53-99-156l-95-8q31 52 102 159z" horiz-adv-x="886" />
<glyph glyph-name="barntar" unicode="&#x46;" d="m694 622q0-16-10-46-8-3-13-3t-14 3-15 3q-18 0-31-10-6 1-17-1t-17-3q-10 0-25 2t-36 5q-43 8-60 8-6 0-19-2t-21-2l-9-20 14-22q-2-6-2-18 0-8 1-20t3-28 4-27 1-20l-11-20q3-8 3-18 0-16-6-35l9-27q0-9-5-26t-6-26q0-6 1-14t3-19 3-18 1-15q6 8 16 19t23 25l19-1q33 61 71 93l5-3q6-23 44-21l31-35-5-15-45-39q-28-23-49-33l-13 2-10-22h-20v-18q-34-47-112-104-50 10-84 69l-11-1q-12 0-24 6t-23 15-16 21-7 23q-5 4-13 10t-18 14h-17l-47 39q-27 21-35 49 23 22 42 29l18-11 11 14q14-14 47-31l15-27 9 2q59-32 75-67l18-4q4 9 4 25 0 6-1 16l-3 19-3 19t-2 15q0 9 1 23t3 30 3 31 1 22l12 9 33-17 15 21-10 8-30 6-17 25 2 10 5 3q-9 13-9 35 0 8 2 25t1 24l-7 20-26-4-30 3-2 8-18-5q-6 0-45 11-33-13-58-13h-17t-25 1q-26 2-41 0l-6 13q7 24 7 36l-9 29 1 6q10 3 33 6l15-13q31 20 37 20h138q-10 0 41-9l6-9q15 10 33 14l7-3 25 4 11-6-6-17 44 22 10-1q9 0 27 5t26 5q10 0 24-1t33-4 33-3 24-1l2-15 39 16q14 0 37-3l-1-17q0-3 5-11t5-12z" horiz-adv-x="771" />
<glyph glyph-name="sartar" unicode="&#x47;" d="m503 521l8 63q5 5 23 30 15 20 28 20 5 0 13-4t9-4h8q3 1 7 1 7 0 16-9 8 0 17-10t9-18q0-12-7-34-6-23-11-31l-18-10q-3-2-11-20 8 0-26-3-37 11-58 29h-7z m129-247l-16-2q-37-26-48-26-3 0-21 9-8 5-14 8t-9 3q-4 3-9 7t-14 8q3 34 21 66 22 39 52 39 5 0 17-4t18-3q15-9 30-42 0-4 0-14t-2-27q-5-6-12-12z m-292 229q-17-10-38-10-17 9-37 21t-31 31q14 22 24 52 4 15 44 36 13 0 43-14 29-14 29-27 0-5-16-65-12-11-24-16z m22 292q31-4 60-35 40-42 49-47l-8-48q-8-22-30-38l-11 8h-2q-9-2-20 20-10 20-19 22-40 34-87 34-70 0-125-18-80-26-80-80v-91q0-53 89-89 70-29 135-30 13 8 42 14 31 7 43 15 15 22 21 28 13 11 32 14 4-12 12-44l8-9q-3-8-3-18 0-12 8-39t8-39q-1-4-8-16 7-13 7-20 0-20-17-54-22-42-25-52l8-9q-14-5-41-41-35-45-105-60-45-10-73-17t-40-15q1 9-1 13l-5 4q-20-5-22-5-6 0-18 13l-12-13-2 19q-27 10-42 37t-15 57q0 16 12 48 13 37 27 37l11-6q8-8 7-17-3-26-3-16 0-19 51-44v-4l15 1q10 1 28-5t27-6q6 0 23 4 20 5 22 3l9 6 7-3q16 2 42 35 16 20 28 32t18 17v108l-17-12-5 1q-5-4-13-8t-19-10q-6 0-18-6t-20-7q-3 0-9 2l-21-7q-41 0-90 11-63 15-74 41l3-3-13-3q-16 0-41 21t-25 37l6 21-7 15-14-2-5 5-4 10v135q0 20 35 76 36 57 55 67h3q12 23 35 35 4 2 16 6t34 11q66 20 84 20 45 0 61-8l11 4q5 0 17-13z" horiz-adv-x="648" />
<glyph glyph-name="hell" unicode="&#x48;" d="m1061 237l-4-1t-4-1q-2-1-3-1-6 0-21 2t-23 0q-4 3-14 6-5 0-20-2t-24-2q-13 0-23 3-5 8-13 8-29 0-54-12l-31 9q-9-5-18-7t-20-2h-11l-4 9q2 6 9 16l1 5q-8-1-19-12-14-17-15-17l-16-1-3-39-10-10q12-14 12-44 0-14-3-42-3-27-3-41-7-4-23-2-6 0-10 1t-7 0q-4 0-6 1-13 1-25-9l-9 5q-2 25-3 49t-2 46q0 36 3 71 7 5 19 20-14 4-16 11 1-6 2-1t0 22q0 5-2 16t-2 15q0 9 6 27t6 27l-4 5q-12-8-21-9 3-2 12-11l-30-44q-9-14-19-21t-21-12v-2q0-30-42-69-5 0-13 20l-6-1q-12 0-20 20v8l-4-1q-8 0-15 4-41 44-35 52-4 3-11 14l2 4-3 6-8-1-11 1q-4 7-11 12 0-2 1-4t0-3q0-2 1-2 0-8 0-19t-2-28q-1-15-1-26t-1-18q5-12 5-27 0-27-9-55 5-17 7-32t2-29v-14q-14-18-30-18-6 0-14 1t-18 2-17 2-12 1q-2 10-2 13 0 11 4 20 2 1 5 3 2 2 6 4t8 5l-5 9q-10 1-13 11-1 3-1 8t0 10q0 5 1 8t0 5q0 3 1 5 0 10-1 30t-1 30q-14 4-27 3-9 5-17 8l-7-9q-8 1-24 0-11-1-17-1t-8-1q-11 0-21 6t-13 5l-5 3q-7 0-18-11-13 0-41-3-14-1-24-1t-17-1q-52 0-73 7l-1 7q0 16 31 35 10 16 16 25t8 10q16 19 34 26v5q0 5 5 20l35 48 11-3 4 6-1 8q0 10 17 22 17 14 16 24 31 47 64 77h3q10 0 10-21 0-18-7-25l11-33q0-32-25-51-2 0-3 1t-2 0h-2-4q-4-13-20-45-10-2-23-24-12-19-14-31 4-6 22-8 14 0 25 3 6-7 5-17 2 1 8 7t17 15h9q5 0 16 2t25 3l22-4 4-5v13q0 22 6 66-6 13-6 27 0 17 10 33-11 11-11 64 0 12 4 25h5q15 0 34-28 37-23 40-25 24-18 24-38 0-16 18-22 4-13 23-33l-3-6q3-4 18-10 7-11 19-25t28-31q10 7 21 27 5 1 16 9l-1 6q0 12 20 21l8-1v5q0 20 38 68 5 3 23 19 4 9 10 18 5 3 29 32 19 22 35 22l7-1q7-7 7-14 0-6-1-15t-3-20-3-20-1-16q0-10 3-28t2-27q0-42-3-64h-4q1-3 2-9t2-17q8 1 18 1h20 16l-3-9q7-5 19-5 4 0 9 1t10 1q-8 3-15 8 6 3 15 5t18 1h17t11 2q20-4 21-4h3q-2 14-19 30t-19 23q-1 6-3 13t-8 8l-2-1q-6 0-16 7-4 7-4 15-13 9-15 35 1-21 2-11t0 51q0 7-2 21t-2 21q0 19 8 24 9 0 41-45v-3q0-7 18-25v-3q0-8 16-27l5-18 6 1q13 0 22-21l-1-8h3q5 1 17-4l39-50q0-19 8-33 12 5 19 5 14-19 29-37t29-39z" horiz-adv-x="1062" />
<glyph glyph-name="luck" unicode="&#x4b;" d="m571 498q-26-12-64-12-9 0-26 1t-26 1q-24 0-36-6 1-35 12-87l11-3q7-21 18-51t28-69l-5-15t-6-22l2 1 8 4q7 3 9 0l72-177-7-12q-11 10-21 12-8-1-14-3t-13-4q-26 11-45-5-16 9-28 63l3 9q-6 1-10 7l10 14q-11 4-22 12-46 130-45 148l12 14-12 7-13-1q-6 7-14 24t-16 43l-24 74-20-1q-10-10-10-22l-9-6 5-13q-8-18-19-45t-24-64q-6-17-19-28t-15-16q2-2 4-2 3 0 5 2l8-16q-1-5-3-12t-8-18l-9-3-4-8q7-41-49-158-8 1-19 4t-27 6q-8-8-21-9t-25-3q-2 11 5 26 4 8 7 14t3 9q2 3 6 15t10 32q17-7 19-4-3 10-3 23 0 25 11 57 5 14 10 28t9 27q10 9 16 19-1 13 6 40 4 14 8 24t8 16l17 8-13 7 30 95-12 7q-16-2-32-2t-34 0q-1 5-5 15l-3-2q-4-13-25-14-1-1-33 1-4 7-4 96 8 2 93 2 87 0 92-3 5-2 16-16 11-12 13-19l7-4-7 27 9 13q8 2 27 3t47-1l23-17q4 5 9 9t11 8q22-6 81-6 60-1 82 6l9-3q0-15 2-37t6-54z" horiz-adv-x="620" />
<glyph glyph-name="fire-alt" unicode="&#x4c;" d="m704 386q-5-18-5-30v-2q0-15-4-28-2-12-10-34-8-24-8-37-7-14-22-26l-1-28q-23-54-84-102-65-52-123-52-17 0-32 6-5 8-13 8t-21-6q-8-4-13-5t-6-3q-35 13-47 13-8 0-15-3-17 6-29 10t-23 6q-23 16-40 29t-30 23q-48 39-63 60l-24 46q-42 61-42 147 0 64 24 145l38 55q20 30 48 44l32-13-13 29q5 23 33 38 43 22 47 26 9 1 19-10l15-18q1 11 3 24t7 18q12 10 78 12 27 1 48 1t36-3l27-13q2-9-1-14 0-10 12-11 10 2 13 5 31-26 60-33 16-13 33-36t37-55q46-76 46-122 0-11-3-20 2-8 7-18t9-23z m-105 12q1 3 1 10 0 10-9 33-8 24-8 33 0 8 3 14l-34 41q-21 25-41 33l-29 27q-17 17-19 33-3-7-10-16l-6-2q-14 3-29 3-6 0-46-3-26-1-46 2-6-5-34-8-20-1-30-17-20-14-43 2 4-38-15-48-20-41-27-51-19-28-40-41l10-24 8-4q1-30-7-37-2-1-7-1t-13-1l38-17q-3-41 33-136 12-4 121-66 4 0 31 3 10 1 19 2t15 0q43 0 63-21 4 12 17 29 12-1 28 12 17 14 27 14 4 0 7-1h3q7 6 19 28 13 24 16 27 26 26 32 68 1 9 2 29t0 51z m-119 27q9-29 9-52 0-18-5-37t-6-23q0-9 1-11 1-6 3-3l-2 3q-4 0-14-9-39-36-90-36-37 0-51 8-11 8-21 17t-22 18v12q-3 2-6 6l-8 7-21 68q-2 6 1 16t8 21 14 22 19 19q40 32 83 32-2 0 33-3 7-9 25-22 8-2 14-5t9-5q17-9 27-43z m-59-51q0 23-14 39t-39 15q-2 0-4-2l-2-8q-29 0-42-34l9-6q-2-3-4-19 2-4 26-28l1 2q2-1 5-2t7-2l1-1 3 2q1-2 7-1h2l13 12q6 0 21 6 0 4 5 13t5 14z" horiz-adv-x="767" />
<glyph glyph-name="M" unicode="&#x4d;" d="m618 279q17-14 32-42l12-24t13-23q0-30 37-68 36-37 36-60v-8h-70q-51 0-63 11-7-16-20-16-4 0-14 2t-18 2q-4 3-15 5l-17 3q-39-11-49-11t-21 1q-10 1-23 2t-27 0q-27 0-79-3-26-2-46-3t-34-1q-29-1-79 1t-123 6q14 23 34 59t45 85l32 12-4 23q8 14 16 27t13 25q30 59 36 88 11 13 24 34t26 50q4 8 25 32 16 18 14 36 22 13 30 26l-6 15q2 5 9 16t17 27q16 25 15 46l23 22q16-14 34-57 16-37 37-53l-5-29q39-24 51-70 6-2 33-49 25-45 35-45 1-13 19-45 17-29 15-49z m-61 0q-10 37-22 37l-3-3q-15 15-43 60-12 5-40 63-29 59-49 65-7-13-22-37t-41-60q-42-58-57-101-7-20-34-56-27-37-40-68 9 8 20 17t24 20l28 14q-3 7-6 16 14 13 18 19 23 4 68 23 4-1 13-1 7 0 22 2t21 2q15 0 23-7 13-4 20-4 1 0 4 3t12 3q20 0 69-49 25-24 41-43t24-35q5 5-24 58-28 53-26 62z m-62-77q-8 1-21 3t-31 7q-16 5-28 7t-23 1q-32-2-44-18l-4-1q-7 0-25 6-7-8-15-25l-34-28q-21-21-26-37 7 0 24-3 1-6 25-6 3 0 10 2t15 4 16 4 13 1q12 0 28 0t35-2 35-1 25-1l26-4q13 0 27 8 1 1 14-1 8 0 11 1l-16 37q-7 7-16 18t-21 28z" horiz-adv-x="799" />
<glyph glyph-name="light" unicode="&#x4f;" d="m119 605l26 11 4 21 31 13 19 27q49 24 129 46l6-19 18 12q21 14 52 14 69 0 94-58 9 0 64-13l10-26 10-2q14 8 26 8 55 0 84-135 22-105 16-176-20-1-29-1t-8-1q4-12 24-21 4-8 4-21 0-33-28-74-27-41-53-53-13-26-29-42-11-4-26-9t-37-11q-2 3-3 3 0-6-1-9-2-8-7-5-41-30-86-30-15 0-33 5-24-7-39-7-22 0-32 13-54-1-102 22t-75 65l-33 27-7 11-18-6q-40 105-40 205 0 80 22 131z m476-343q23 66 23 119 0 89-67 181h-23l-17-1-11 18q-56 57-93 57-22 0-44-17-8 5-17 5-13 0-35-12-44 4-72-40 5-5 4-7-2-8-2-9l-16 4-42-23q-8-13-15-34-7-5-13-14t-12-22-8-24-3-25q0-19 7-27 0-18-17-24 6-42 40-115 42-87 80-87 14 0 24 10l8-1 11-16q20-1 32 0t16 1q20-29 59-29 31 0 53 19v12l18-13q26 13 47 26t38 26q1 6 7 15t12 18 14 17 14 12z" horiz-adv-x="758" />
<glyph glyph-name="pamalt" unicode="&#x50;" d="m291 729q102-76 208-168l-12-28 25 13 115-107-72-48-193 145h-24l10-121 7-80-19-40 26-48-5-192-51-2-56-1-3 394 25 7-30 10v73q-19 0-123-121l-31 10 9-34h-48q-48 0-48 48 0 24 290 290z" horiz-adv-x="763" />
<glyph glyph-name="Q" unicode="&#x51;" d="m461 358q2 10 2 15 0 22-32 75-14 14-40 14-8 0-23-1t-24-2q-35-30-30-57-4-4-4-15t-4-15q-1-9 3-25 10-8 20-15t20-16q24-16 47-14 2 2 14 0 25 13 51 56z m123 303l21-1q5-5 5-13t-4-17q7-3 24-6t22-7q16-9 66-120l-20-24h17q15-18 20-63 4-42-8-65-3-7-14-16t-19-8q5-15 1-33-2-12-3-20t-1-12q-11-6-23-14l-1-10q8-11 8-22 0-7-5-17-36-70-121-107-70-31-160-36-5 10-2 27 1 4 1 8v6q0 6-2 14-24-14-28-31-11-8-18-8t-12 4q-10-6-52 6-35 10-53 20t-18 26q-17 4-30 12l-16 10q-1 9-16 29-12 16-14 30 20 18 23 38-21 0-38-17-10 6-20 17t-18 28q-18 34-13 55-13 29-13 49 0 15 7 22-10 14-8 53 4 65 58 102 38 26 48 38l-7 34 9 9q-10 12-8 17 7 13 118 54 84 30 134 30 23 0 38-6 5-8 11-15t13-14q-2-9-3-17t-1-16l7 10q5 10 11 44 16-5 39-13t53-20z" horiz-adv-x="788" />
<glyph glyph-name="magic" unicode="&#x52;" d="m513 67l-3-16q-7-7-18-4-7 1-11 2t-7 2q-13 0-35 9-6-5-25-6-20-2-23-5-16-3-39 35-2 6-1 11 1 2 1 4t1 6l-56 36q-2 6-18 21-12 13-12 24 0 5 1 8-3 5-11 5-5-1-8-1h-5q-3 7-29 27-22 18-22 32 5 9 27 32 19 20 22 34 9 7 22 38t24 37q0 10-12 15-4 2-10 8l-14 14q-1 3-1 6 0 4 1 6 8 7 10 13-2 2-4 2-4 0-12-6t-14-7q-24 0-46 17-12 10-18 9-5-3-3-9 1-3 1-5t1-4q-8-15-7-34 3-57 3-35l-1-93q-8-2-16-8 1-8 12-27 4-7 6-17t3-27q2-21 3-32t1-14q0-37 2-64t3-45q1-8-7-10-2 0-14 2t-33 6q-5 1-9 1h-8q-16 0-29-10-1-1-5-1-6 0-12 14 6 21 9 66-8 11-8 23 0 6 2 18t1 17q0 7-1 10l-6 108q11 11 10 30-2 32-1 33 2 6 2 11 0 7-7 21t-7 20q0 5 2 11-1 24 6 70 9 0 24 15 15 16 20 18 0 2 3 4 2 2 0 4-12-5-41-3-12 9-11 31 3 31 0 35v38t-1-4q2 21 11 28l12-3q11-11 29-26t44-36q1-2 23-19 17-14 17-20t-3-12l3-3q7 0 20 4t19 3q9 0 32-16l39-27q26-18 33-31 21-17 26-35 8-2 30-4 17 0 24-13 4-3 4-8 0-3-7-13t-8-15q-12-5-22-14v-23q-11-13-25-33t-34-49q-7-2-14-10 19-23 38-44t36-40q0-5-10-10t-12-8l39-9q16-1 38-22 25-23 36-27z" horiz-adv-x="515" />
<glyph glyph-name="infinity" unicode="&#x53;" d="m767 221q1-3 1-11 0-15-10-39t-10-38q-2-6-24-15-21-9-21-15 0-4 3-8-6-8-21-17t-21-13q-22-7-106-10-1 0-6 8t-10 8q-2 0-8-3t-11-4q-5 0-23 9-17 11-23 9-10 7-23 19t-31 31q-22 0-19 1-10-11-20-23t-22-23q-28-25-58-27-7 0-21-3t-22-4q-14 0-21 7l-20-7q-6-2-9-2-6 0-10 4-22 7-34 11t-16 6q-27 12-39 33-32 26-32 46-9 0-23 17-6 37-6 61 0 25 6 36 12 42 49 68 2-1 6-2t9-2q2 4 2 5 0 3-2 10t-3 10q0 5 86 46l92-7 14-14q9-9 14-9 6 0 9 1 33-17 75-81 12-1 30 23l28 38q15 21 40 21 2 0 7 0t9-2q6-2 11 3t4 10q42 14 62 14t38-9q3 1 8 1 12 0 25-10l3-24q27 3 33 2 18-13 28-30l25-39q5-8 2-34t6-33z m-80-23q-1 5-9 16 2 36-15 63t-52 27q-22 0-71-15-10-15-36-38-28-25-35-39 3-10 22-22t22-18q5-6 29-22 25-16 31-30 7 5 22 8l24 5q27 19 28 22 16 11 14 30 7 13 26 13z m-325 7q2 6 2 7 0 4-8 12t-9 11q-5 4-12 11t-17 17q-16 20-26 27-27-2-60 30-6-10-31-25-25-13-30-23-14-5-32-46l2-22q3-14 16-14 11-22 15-28 11-14 28-15 5 1 22-11 16-12 20-12 5 0 13 6 44 9 107 75z" horiz-adv-x="816" />
<glyph glyph-name="eternal-battle" unicode="&#x56;" d="m845 313l1-39 7-46q-4-11-7-20t-6-18q-11-29-20-33v-1q0-5-22-18t-28-13h-4q-7 7-19 42-12 36-12 48 0 14 9 26t11 19q11 5 19 31l-1 9q0 10 4 19l-26 72q-7 1-10 19-2 1-6 5t-11 8l-9-3q-5 2-12 7t-16 9l-8 1q-12 2-20-11-11-17-16-22l-42-93q-32-71-47-83l-51-108q-8 0-8-9 0-16-37-56l-7-1-4 4q-23 23-85 140-31 60-47 96t-17 48q-8 12-16 27t-20 34q-19 36-40 38-3-1-9-7-8 2-19 2-6 0-11-8-26-20-39-45-10-18-20-60 7-26 4-40 12-16 40-43-12-94-38-108-9 1-18 9-22 3-38 27-16 25-16 47 0 7 1 10l-9 10-1 10q1 4 4 37t6 97l27 73q0 10 27 36l34 33q15 7 49 15 8 0 21 1t30 1q34 3 52 3l23 3q19 2 25-2l14 6q6 0 19-3t18-4v-3q0 1 2 3l119 3q86 2 121-3l27-4 8 4 42-14 16 3q8-14 14-18 12 0 15-8 88-82 88-179z m-272 131l-11-7-5 11h-133q-10 0-27-1t-43-3l-3-8-4 4-5-1q8-14 19-35t25-49q10-26 27-59t40-76l57 104 5 3-1 2q0 5 11 19 3 17 13 39t19 30v2q0 14 18 37l4-10z" horiz-adv-x="903" />
<glyph glyph-name="mastery" unicode="&#x57;" d="m701 77q-20-23-42-23-15 0-40 3-14 2-24 3t-17 1q-37 1-57 25-22-11-67-27-21-3-52 4-35 7-51 7-3 5-10 5-3 0-13-5t-16-5q-3 0-9 2-10-10-27-8l-30 3q-19 13-29 35-13-31-23-30-7-1-14-1t-15-1q-7 0-19 1t-29 3q-34 3-48 2-9 4-9 12 0 5 4 17t2 18q-1 51 6 154 3 6 10 10t13 7 12 4 5 3q-4 4-10 4-3 0-10-1t-11-2q-6 0-11 5-1 8 2 62 3 36-3 62v34q0 22 12 33 1 1 1 5t-6 13-6 9q0 82 11 112-11 14-11 38v27t-1 14q3 10 11 10 6 0 11-4 7-12 24-12 16 0 33 12 5-1 15 2t14 3q7 0 12-6 2-14 3-35t-1-48q-2-33-2-54t1-31q0-5-2-12t-4-16-5-15-2-12q0-15 12-25 2-10 2-16t-2-16-4-20-5-20-2-16q0-5 1-9t1-9q-2 0-5-14l11-7q0-40 15-116-6-32-6-27 0-10 9-17 15 3 27 3 21 0 32-8 1 0 7-14 6-13 12-13 2 13 20 20 20 9 20 20-4 9-4 21 0 9 3 26t3 26q0 8-1 25t-1 25q0 29 23 52-17 8-16 16-1 4 0 12t1 18q1 37-10 53 3 9 38 50 5 0 16-2t24-8q24-9 40-5 9-10 8-35-2-33 1-39-1-1-1-6 0-4 2-12t1-14q0-8-7-15-18 5-19 5 1-9 2-15t2-11q4-17 15-21 2-10 2-20t-1-22l-4-42q-9-6-9-15 0-3 7-16t6-20q0-4-1-6 1-2 27-4l10-2q10-2 24-7t31-14q2 2 22 10 19 7 24 17 0 10-1 30t-2 29q0 49 26 70l3 11q-6-8-17-5-14 3-9 15 5 18 5 38 0 10-1 31t-2 30q0 31 9 51-8 18-8 35 0 21 14 43-12 11-14 46-1 20-3 33t-4 17l7 26q4 16 15 21 8-3 19 0 16 3 17 3 11 0 17-8 28 11 30 11 5 0 13-5l7-9v-95q-9-7-7-21 12-9 12-23 0-3-1-10t-4-15-3-15-2-13q-15-5-41-30 9 3 20-6 8-5 13-7t6-4q6-27 6-62 0-12-1-30t-3-42q-2-23-2-41t0-30q6-14 6-29 0-21-13-59 17-49 14-98z" horiz-adv-x="778" />
<glyph glyph-name="fate" unicode="&#x58;" d="m548 274q-3 0-57 14-7-5-13-9t-14-7l-32 5h-31l47-41q8-6 13-14t9-16l-4-8 8-20q7 7 13 11 24-30 45-60 1-12-34-38-29-22-52-31-8 21-34 55-13 17-21 31t-13 22q1 7-9 13l-3 2q-3 1-3 5-9 4-27 21-1 5-3 13t-7 17q-7-5-16-17-4-7-8-13t-10-9q-11 1-21-6l-5-23q0 2-1-5t-4-21q-17-9-33-43-15-34-28-44-14 7-32 23t-44 41q8 13 22 32t34 44l16-6q7 19 3 36 1 4 9 13 5 5 12 13t14 17l-27 4-16-6q-15-5-27-1-2 5-9 5h-1q-13 0-16-1t-9-7q-15 3-58-6l-9 4q-12 39-12 61 0 13 5 25 7-1 41 0 23 1 43-2l8-7 17 13q-1 0 15-1t50-3q0 4-3 10t-8 10-8 9-4 6q-20 9-21 31l-3 3q6 15 1 41-18-14-26-18-23 21-41 49l35 39q24 22 43 29 14-8 26-6l47-62q8-15 22-36t34-48q8 16 20 38t29 48q14 22 23 38t11 26l11 10q33-15 48-24 22-14 42-33l-38-49-1 1q-10 7-29 6 9-8 13-12t5-8 1-7v-10l-23-27q-5-5-9-10l-8-10q-11-14-11-25 38 9 75 4 12 5 19 4l18-14q8 13 19 17 16-3 34 4l11-4q15-22 11-85-15-15-46-10z" horiz-adv-x="648" />
<glyph glyph-name="yinkin" unicode="&#x59;" d="m499 766q23-5 40 8 11-4 23-6t26-4l4-53q-5-15-5-36l-1-36 3-58-5-22 81-6q1 20 0 46t-2 56v14q1 4-5 9l1 31 5 13v36l9 9q35 5 80-6-3-18 4-40l-5-31v-14l-1-49 4-35-1-14v-13l5-9q84-2 97-29-22-27-32-62l-27 1-31-4q-35 13-72-3-21 8-44 1-19-1-54 5l-49-3h-13-18q-4-13 4-31-10-32-2-76-1-7 0-13l-5-14 5-13-1-22v-23l-5-17v-18l4-18-1-18-9-13v-27q9-11 8-27 1-24-6-58v-13l-27-4q-16 2-37 3t-48-2q3 17-3 41 15 36-3 76l10 57 1 63-8 18q2 15 4 34t-3 41l-4 23 9 44q-59 10-138-6-49 11-111-2-16 4-34 7t-42 3q-11 5-8 83-6 22 81 11 6 41 2 79l1 62q0 13 1 29t5 34l5 17q40 7 84-14-10-39-6-94l-1-36v-14l-1-17 5-9-1-31q36-8 80-2 2 13 3 30t-1 37q4 16 5 35t1 41l1 67q30 5 80 3 16-63-2-143l7-40v-23q5-6 13-9 32 6 67-1l-4 27q4 11 6 24t0 29q3 32-4 49l6 85v0z" horiz-adv-x="987" />
<glyph glyph-name="law" unicode="&#x61;" d="m693 89q4-14-3-36-76-13-133 4l-12-11q-43-6-67 23l-47-23q-94 1-200 3t-225 4l-4 9q4 5 14 25t25 51q25 49 48 70 3-1 11-1 7 0 10 1-8 41 65 167 73 127 111 147l-4 16q7 21 32 68 29 53 41 57 20-13 48-64 28-49 28-78 0-7-1-10 21-9 72-96 60-104 69-114l5-27q25-29 60-90 43-77 57-95z m-158 55v7q-12 11-22 40-13 32-22 41-7 20 4 39-8 8-24 11-5 7-18 30t-37 60q-34 58-63 86-5-10-20-33t-40-58q-38-56-51-97-4-12-19-22-22-14-26-18 5-24-41-84 8-8 35-8h40l15-14 4 4 8-7q-1 12 0 19 34 5 162-1l21-21 10 3q9 25 38 25h33l12-1 4-1h-3z" horiz-adv-x="695" />
<glyph glyph-name="spirit" unicode="&#x62;" d="m526 53q-21-4-37 9-8-5-16-8t-19-6q-43 15-66 59l1 15q-42 20-49 27-9 9-35 48l-7 2-18-20q-9-9-23-14-22-26-43-25l2-20q-14-11-23-23t-15-23l-14-5q-12-18-88-18-48 0-51 11 4 10 14 20 16 15 18 18 16 5 32 39 28-5 65 41 43 54 65 61l11 17q-7 19-23 23-17 33-50 58-27 19-45 71-11-8-22-11-7 8-11 14t-6 8q-5 5-10 10t-13 6q-6 24 35 74 42 51 65 48l2 22q22 10 115 132 12 7 27 2 1-1 34-33 21-19 19-42 21-12 43-36l39-44 2-15q46-11 92-84-2-20-3-26-3-13-11-23-11-2-23-17-13-14-30-16 0-18-40-55l-57-51q19-42 87-104 37-32 60-57t32-43z m-138 436q-7-1-14 9-10 2-20 21l-16 28q-10 1-58 42l-8-5q-8-20-39-50-15 4-33-6 3-9 3-17 0-15-17-35-16-17-16-28 0-10 14-26 3-10 15-25l7 3 34-33q28-26 29-33l9-5 10 1q10 19 45 45 5-5 10-6 1 1 5 5l10 12q11 12 16 11 2 2 8 9t13 20q16 25 18 33z" horiz-adv-x="573" />
<glyph glyph-name="stasis" unicode="&#x63;" d="m599 64q-14-11-137-11-87 0-92 8 0 11 6 17-8-5-19-11t-29-15l-12 4-14-6q-69 5-143 12-55-18-104-9-9 109 10 158l17 8-5 12q9 27 37 60 14 17 28 29t24 20l18-1-3 9q8 17 49 36 39 17 57 17 9 0 12-25 13 28 48 28 17 0 23-14l14-3 16 6q40-8 95-51 64-49 64-84 0-14-11-25 11-3 22-6t18-16q-2-7 4-36 8-37 8-53 0-15-5-27 7-10 4-31z m-104 76q-2 10-6 26t-11 35q-7 18-27 43-20 26-30 47-7 1-19 3t-32 7q-38 9-56 9-28 0-41-16-5-1-37 7 4-18-41-47-24-15-39-112 12-8 63-9 4-4 74-1 74 3 92-3 0-8 9-10t14-3q12 0 35 20h50z" horiz-adv-x="654" />
<glyph glyph-name="dragon" unicode="&#x64;" d="m710 383q-6-17-20-30-19-16-42-39t-53-55q-4 13-10 13-4 0-10-9t-7-12q0-9 25-27 7-5 13-10l10-11q2-4 5-7t6-8q52-52 52-69 0-5-9-9t-11-9q-11-21-25-21-7 0-10 3l-45 51q-17 13-56 53l-29-35q-13-11-31-28t-44-42q-18-23-27-30-2-2-16-2h-14q-10 8-23 20t-29 27q-39 39-38 52-7-1-24 16l-29 29q-14-15-33-37t-44-54q-2-4-23-21-1-1-5 4t-7 4q-15 0-19 10l-14 18q-7 10-5 14 5 8 16 21t28 30q9 10 22 25t33 35q-12 14-12 19t-9 6q-10 7-24 21t-32 37q-35 42-41 46v15l33 43q13 14 38 39t63 61l-64 64q-32 21-50 53 9 6 9 10 0 11 11 22t20 11q6 0 13-4l110-110 22 20q5 5 11 11t12 12q42 54 90 94 7 7 23 7 2 0 64-65 0-14 4-21 4-1 8 3l34-31q13-5 18-17l103 97q2 0 7 2t5 2q9 0 21-11t11-21q0-22-18-47-10-15-23-16l-57-59q5-8 16-12 3-1 3-12t4-15q8 2 9 5l30-27q7-7 27-29t53-63z m-169 67q-6-2-4-2-3 4-3 16-9 9-16 9h-4q-1-1-2-1h-1l-2 1-92-89q18-11 43-38l59-62q22 20 46 43t49 50z m-65 74l-91 87-20-15q-6-5-15-15t-22-29q-2 0-6 5t-7 4q-4-7-10-16t-16-21l94-95z m-204-71q-11 13-30 30l-5-14q-3-10-13-14-2-4-7-2-1-2-25-26-3-3-8-7t-13-10q-10-7-10-9-3-6-14-18l72-78q4 2 8 6 0-8 7-21 16 13 35 32 4 10 25 31l24 24t16 14z m196-208l-97 98-94-98 40-30q-4-13-4-9 0-12 20-29l34-30 42 39z" horiz-adv-x="759" />
<glyph glyph-name="earth" unicode="&#x65;" d="m660 190q1-9 1-16v-14l-4-14q-3-9 1-9l-15-70h-11q-10 1-34-5-23-6-32-6l-106-1-6 10-13-9q-8-6-14-6-13 0-21 4l-11 14q-4-2-7-5l-8-8-133 19-4-12-9-7-177-2q-6 4-6 39 0 18 6 54 7 34 7 54-5 11-13 18v97q0 10 3 39 1 13 2 23t-1 17q7 4 5 15l-3 20q0 1 3 5t5 7 5 7 1 4l-15-5v141q5 13 13 32t15 43h56q4-6 17-6 7 0 21 3t21 3h59q-1-1-1-8l5-8q5 2 12 8t16 14l9-6h83q7 0 20 3t18 3 17-1l22-2 22-2t17-1l7-11 17 16 114-14 18-155q1-8 1-19t-3-25q-2-17-2-28t-1-16l-19-51q3-8 8-15l11 12v-1q0-8 6-15l-1-17q0-5 1-18t1-35z m-234-45l4-11 30-2q7-1 20 1t32 3q16 2 29 2t23-1q0 4 20 55l-4 101-4-1q4 0 4 1 0 37 4 42l-1 8q0 9 3 26t3 26v68q-6 4-12 15 0 6 2 15t4 19 4 19 2 15q0 5-23 31l-115 9-8-6-13 6h-31l-75-12q-4 13-23 16l-22-13-7 9h-72q-10 0-31-6-22-6-32-5-7-14-13-45l6-13-10-28q1-28 4-57t6-61q13-3 13-10t-6-20-7-19q-3-18-3-59v-131h99l17 10 55-10h109z" horiz-adv-x="713" />
<glyph glyph-name="lightbringers" unicode="&#x66;" d="m73 517l-8-4-12 9q-2 60 19 94 4 7 17 23t32 41l19-3q24 63 114 63 1 0 8 1t17 1h16t12-1q16-1 26-7l-6-53q-23-2-48-7t-53-12l-11 9q-13-14-29-34t-39-48l-10-17-7-2q-1-7-1-13t-1-13q0-35 13-68 15-38 15-40 16-3 40-31 12-5 30-10t42-13v3q0 12-5 20-14-5-18-3-22 10-59 55l-3 19-13 9q2 15 3 30t2 31l-9 8 39 53q12 17 26 23t28 4q15 12 50 20l18-12 17 9q90-26 105-81l-12-15 20 9q21-30 21-80 0-13-3-23l-16-9 2-9 8-4q0-58-103-107 9-7 10-16l13 5q10-7 24-16t32-21q13-5 25-13t21-23l31-50-10-16 19-5q4-16 9-59 3-40 10-59-22-11-57-11-17 0-27 5-9 35-2 65l-7 7q-8 45-38 79t-73 49l1-13-18-23-9-50 14 20q8-13 8-26-1 12-1 5v-35-31q0-11 0-19t-1-15q-16-9-31-12l-15 7-22-6-10 9q-3 14-4 39t-1 61l8 10q1 2-1 7t-2 7q0 6-1 15t-1 19-2 20-1 15l-56-12 3-11-28-32q-15-18-34-23l4-16q-21-40-12-95l-13-16q-9-1-16-1t-14-1q-19 0-39 4-1 19-1 30t-1 14q0 37 10 63l9 4q-2 6-2 11 0 26 30 64 25 34 54 49l3-2q17 8 30 13t20 7l34 16-20 3q-49 18-66 35l1 6-5-1q-3-1-9 0t-15 1q-13 13-31 43-18 13-24 45 0 2-1 15t-4 38z m286 53l-19 7q1-10 2-16t0-11q0-26-8-36 10-16 10-50 0-11-1-23t-3-27q4 2 10 6t13 7l5-5q5 16 13 28t15 22q-1 8 5 21l2 1q-4 7-7 28-1 6-5 13t-10 14-9 14-6 10z m-97-4l-5-5q-3-2-6-5t-8-9q3-6 3-13 0-5-3-16t-3-17q0-2 8-11t6-19l14-7v6q15 7 15 17 0-1-2 5 1 0 2-1 1-2 6-3-6-3-10-3-14 0-9 30 1 1 1 6 0 2-1 14t-4 34z" horiz-adv-x="556" />
<glyph glyph-name="air" unicode="&#x67;" d="m577 130q-14-11-27-30-16-10-37-17t-49-15q-49-13-92-13-35 0-57 15-8 5-28 27-13 13-23 12-24-3-18-3-10 0-23 10-18 14-22 15-9 12-20 24t-22 21-20 19-13 15q-14 21-26 68l10 11q-37 11-44 25v4q0 10-7 28t-7 26q0 10 5 20-7 14-7 31 0 35 32 73 3 40 12 44l37 12-6 6q-8 2-18 2l-9 1q-5 7-5 13 21 54 86 96 39 25 119 57-1-10 7-12h9t8 1q4-6 3-12h2q8 0 36 31 5 1 11 2t13 0q59 0 121-24 75-28 90-76-2-6-7-12t-12-14-12-13-8-12l-12-3q-48 36-113 53-8 11-11 27-8-2-12-9l-10-12q-20-3-69-24-42-19-71-19-14-15-22-14h-3q-6 6-17 6 2-10 2-16 0-22-14-44l-25-41q-5-8-8-22t-7-37q-8-38-21-56 18-5 24-32l9-43q5-5 16-18t28-34q14-17 27-28t23-19q5-7 5-15t-6-27q34 21 43 21 5 0 16-4t17-4q8 0 25 4t24 3q10 0 16-3 1-9 5-18l20 26t7 9q17 20 34 24 5 10 18 20l12-3q-2 6-2 10 0 14 16 33 17 22 17 33 0 10-6 19l-1 12q-1 22 12 31-4 1-10 0t-9-2q-1 0-7 2-10 20-39 34-27 11-52 11-27 0-50-23l-14-45q0-11 10-20 2-6 0-8-6-24-32-29-38-7-46-12-16 4-24 14-20 69-20 83 0 22 13 38 4 13 13 22 10 0 19 3-2 5-8 10t-6 9v2q57 54 136 62 1 0 22-22l7 1 7 19q62-5 82-26-2-10-1-17v-12h2q6 0 14 10t15 10q9 0 21-8t22-25l32-48v-3q-1-13 3-37l4-21t1-14q0-21-11-38l7-30-58-95q-4-2-9-5t-13-9v-3q0-5 5-11t6-9z" horiz-adv-x="700" />
<glyph glyph-name="trade" unicode="&#x68;" d="m591 307q-26-8-33-6-6 4-15 13l-16-11q-14-9-21-9-2 0-8 2-2-8-3-19t-1-26q1-33 0-45-3-1-8 2-4-5-4-19v-8t1-9q1 1 5 8t5 7 4-9q2-8 0-11l-3-16q0-8 2-21t3-30q-2-2-9-3-13 11-29 11-8 0-12-1-7-10-19-10-5 0-14 3t-15 2l-3 9 2 92q4 3 10 3 4 0 6-1 4-2 8-3t8-4q2-2 4-2-2 10-16 23-12 1-19 10-4 22-3 65-1 1-41 9l-6 9q-5-5-33-14-3 3-24 0-16-3-17 13 9 10 7 19-5 3-18-6t-18-7q-3-8-11-19-4 1-7 2t-6 0q-13 0-23-8 1-10 1-25v-38q-7-1-7-8 0-2 1-6t1-6q0-5-3-8l2-16q2-9 9-10 2-6 2-11 0-6-2-18t-3-19q0-13 7-20 2-7-8-12-3-1-8 2t-10 5-10 6l-4 3q-5 0-11-8-7 7-21 1-12-5-19-7-8 0-14 11 2 10 2 23t-1 30-1 31 0 21q3 5 7 5 2 0 7-2t8-3q2 5-6 16-8 0-12 12-7 14-9 16 2 15-3 41h-14q1 2 1 7 0 6-3 15-14-11-39-24-5 3-10 3-3 0-10-2t-11-3q-6 0-10 4 9 13 9 23 0 5-1 7l-5 4 2 62q4 3 9 1 7-3 9-3 3 0 6 5 2 1 5 1 5 0 11-7t9-7l8 8q4 3 8 6t7 3q3 0 10-1t9-1q10 0 16 6-5 12-7 37l-2 40q-1 21 4 35t9 19q-13 7-13 28 0 16 4 39 1 5 7 4l10-3q4 3 8 3 6 0 18-7t16-7q8 0 14 15 4 1 9 2t12 3q1-4 1-10t-2-15q-2-20 2-26-1-3-1-8t-1-10-3-8-9-2l-2 2q-6-5-5-14v-14q12 5 17 5 4 0 7-3-3-41-6-118 1-1 17 1 12 2 16-4 16 6 30 6 11 0 19-5l106 12 11-5q-2 6-2 7 0 5 4 14t3 13q0 8-8 14-4 7-4 16 0 7 5 22t4 21q0 5-2 11 8 11 8 16l-10 6q3 6 3 15 0 6-2 19t-2 19q0 23 26 26 2 0 6-1t5-1q-2-6 15-12 6-1 20 4t18 4q6 0 9-4-1-6-1-18t0-30q1-29-5-47 0-1 2-6t1-9q-7-5-16-4 1-6 10-13t11-12q-1-32 5-70 6 0 15 0t17-2 17-2 12-1q14 0 22 4 7-4 7-14 0-5-4-18t-4-21q-2-6 4-16t5-14q0-4-1-6z" horiz-adv-x="592" />
<glyph glyph-name="illusion" unicode="&#x69;" d="m373 437q0-25-2-29-2-18-10-28-2-1-6-4t-12-10q-11-9-17-9-4 0-11 3l-2 1q-5 0-5-3l2-3q-5-8-15-9-15-1-17-3-12 2-22 6-23 8-34 16-3 10-23 27-2 8-4 20t-4 26q0 18 10 25 5-2 16 1 0 1-7 9t-5 13l14 15 8 6q8 4 22 7t30 7q7 1 17-1l2-4q0-3 0-8t-2-14q4-1 10 9 8 11 12 8 5-4 12-11t16-15q19-18 15-30-4-8-4-7 16 0 16-11z m140-332q-3-7-14-23-11-5-31-24-5-5-39-7-12 0-33 8-8-2-11-2-13 0-35 31-4 4-4 10 4 9 5 23-7 0-16 6-2 42 11 56 4 14 32 34 19 22 51 18 8-2 7-3 2 6 11 2 29-12 36-31 0-3 1-7t1-10q2 0 7 3t9 1q14-13 16-43 0-2-1-12t-3-30z m-287 56q0-27-22-40l5-7t5-11q0-1-2-5-3-2-8-7t-12-16q-10-14-23-16-18-12-38-7-3 4-17 9-13 4-14 9l-5 13q-1-2-3-6t-7-9q-8 2-26 29-9 25-7 33 13 13 12 20-2 5-4 5t-10-5q-5-2-5 2 0 5 1 7l15 40q7 18 25 26l13 5t18 5q6 0 12-7 4-12 10-13 0 19 9 21 2-1 8-3t15-7q46-34 55-65z" horiz-adv-x="566" />
<glyph glyph-name="disorder" unicode="&#x6a;" d="m470 622q-21 0-45 8l-12-11q-10-2-62-27l-5-14q5-7 10-17t10-26h3q24-63 24-82 0-13-3-26 9-23 9-52 0-43-6-78t-20-61l-27-50 5-13q20-8 41-14t44-8q26-3 29-36 2-14 2-27t-1-27l-8-12q-13 2-38 9-27 8-41 8l-12 15q-10-7-26-7l-15 2-67 39q-41-30-81-42-8-2-30-7l-59-13q-16 7-13 35 1 5 1 9v7t-5 16l-6 15 2 12q6 0 17-1t17-1q11 0 30 8l22-10q9 19 34 34 3 1 16 9-7 11-14 27t-18 38l-11 7q-7 15-11 45-4 31-12 46l15 27-21 9q0 41 10 75 13 52 41 46l-19 26 35 68q-35 13-42 33-21-7-38-7-6 0-14 2t-20 3q-6 22-6 66 0 13 3 28 23 5 40 5 46 0 75-26 20 0 79-35 7 4 49 31l16-8 10 20 44 12q30 8 46 8 15 0 29-6l2-68v-19t-2-17z m-185-137q0 7-20 32-29-53-29-102 0-5-4-15t-5-15q0-85 39-139 7 11 17 29t23 40q-2 10-2 16 0 8 4 24t3 24q0 77-26 106z" horiz-adv-x="547" />
<glyph glyph-name="shargash" unicode="&#x6b;" d="m780 429l-12-103q-10-14-25-52-13-36-26-53l-44-61q-11-5-31-18t-52-34q-44-29-97-50h-3q-34 0-50-8h-85q-15 7-53 13-37 6-55 15-14 1-60 36-15 11-31 23t-34 23q-28 40-47 71t-30 54q-30 67-30 144 0 202 206 343 4 1 20 6t45 14q41 13 68 14l2 3 101-2q28-11 63-15l13-10 19-1q12-8 22-9 88-63 156-150 0-1 26-73 23-63 23-89 0-5-2-11z m-237 251q8-4 11-4 0 5-32 16-12 2-30 6t-42 8l184-450q1 6 9 9l6 3t4 3 3 5 7 10l10 14q19 64 19 126 0 170-149 254z m-147-58q-20-56-61-162t-104-266q28-15 105-48 7-1 14-1t14-1q38 0 105 14l56 12q3 7 39 24z m-51 84q-71-18-77-14-66-29-115-110-43-72-55-153 5-7 5-14 0-4-2-12 2-12 7-29t10-41l14-22q9-15 9-23 0-3-2-7 22-16 22-25z" horiz-adv-x="799" />
<glyph glyph-name="harmony" unicode="&#x6c;" d="m635 417h-18q7-38 10-71t4-61q0-17-1-32t-3-30l-22-17q29-25 25-73-2-11-4-30t-4-45q-10-2-19-2h-9t-19 1q-36 3-59-8l-4 2q-4 23-5 47t-2 50q0 23 2 46t3 48l38 26q-47 17-43 80l4 48q2 17 3 30t1 20l9 15q-11 25-17 52t-4 58l6 103 36-3q25-1 28-28 8 5 21 13t29 16l6-2-5-116 5-20t5-28q0-3-1-27t-6-71z m-252 255q-7-10-13-32 20 0 26-13 0-4 1-7-5-16-4-60 0-36-15-55 14-38 16-131 1-50-2-94t-9-87l-7-2-21-29q40 3 44-55 4-57-19-57h-21t-30 1-29 2-21 0l-5 45h4l5 46q2 17-9 37 2 5 3 17t2 30q2 27 28 49l-30 7-4 9q11 27 8 92-3 62 14 93-33 54-35 169 0 29 49 30 8 1 27 0t47-5z m-251-507q38-18 37-54 0-4-2-19t-6-41q-8 0-44 12-30 10-60-7-5 18-7 64-1 102 22 125l-19 12-3 63q1 37 24 66-27 26-23 86 1 13 5 38t12 61l-17 18q0 1 2 48 0 30 13 43 28 1 93-14 2-10 3-18t1-17q0-17-4-26h-23q31-63 32-136 1-22-1-54t-6-78q11-21 7-70-2-33-3-51t-2-24z" horiz-adv-x="680" />
<glyph glyph-name="horse" unicode="&#x6e;" d="m63 529q51 60 166 148l46-9q33-68 111-129l37-55 120-19q27-7 59-11t70-8q30-28 74-36 54-68 148-111l19-65q14-19 31-44t33-57l-9-74h-102q-18 40-64 74-66 210-305 221-207-11-194-240-20-23-28-55h-64-74q32 311 160 396l-61 90q-36-20-74-40t-80-40l-19 64v0z" horiz-adv-x="1103" />
<glyph glyph-name="darkness" unicode="&#x6f;" d="m725 372l-14-24 9-19q-3-13-26-15 0-8 5-23t5-24q0-18-75-114l-30 6 7-15q-9-24-46-47-36-24-61-24-8 0-21 6t-16 12q-9-10-28-16-23-8-30-12-12 9-24 14l-9-4q-11-21-33-21-78 0-151 57-31 23-57 55t-50 69q3 4 10 8t14 8 14 7 9 6q-24 14-40 10-20 7-18 24-10 7-19 49-8 38-8 56 0 20 15 29-5 17-3 32l1 19q7 6 18 27 11 22 20 27 15-6 28-6 8 0 16 3-10 18-33 26 1 22 23 54 20 30 42 38 36 44 60 38 8 17 41 31 33 15 54 15 31 0 65-17 40-21 56-25l27 23 12-4q7 15 11 15 17 0 103-79 96-89 102-141-5-8-8-16t-6-18q-17-4-31-12l12-2q8 0 44 11z" horiz-adv-x="801" />
<glyph glyph-name="plant" unicode="&#x70;" d="m365 232q0-64-20-106h10q7-10 7-29 0-14-3-32l-42-9q-24-6-43-4-15 13-15 39-1 17-1 28t-2 14q14 5 14 14 0 4-5 15t-6 13q1 4 1 8v9q0 10-2 30t-3 28q0 27 16 40-14 19-16 51v18t1 35l11 7q-15 13-15 33 0 7 3 23t2 22q0 11-1 16-5 20-5 31 0 21 12 32 18-12 32-12 8 0 25 7t25 6q7 0 10-1 0-5 6-36 2-13 3-21t-1-14q-3-8-7-14t-16-13l19-16q-2-8-2-15 0-6 1-16t3-21 3-21 1-16q0-17-6-29 6-59 6-94z m187 220q-51-18-55-18-22 0-78 17 2 12-10 38-11 26 10 95 13 11 42 23 30 12 47 12 20 0 45-44l21-37q-1-11-2-19t-3-14l12-2q-11-33-29-51z m-213 153l-1-1q4-4 1-5-2-1-37-4-48 15-74 36h-12l10 88q8 10 16 20t15 20q21 25 38 25 7 0 18-5t11-5h8l6 2t4 0q10 0 22-12 13-1 25-14t12-26q0-14-9-45t-16-41q-4-2-10-5t-14-8q-2-2-11-23z m-289-135v47q0 26 10 43 30 51 70 51 7 0 22-4t23-4q22-14 42-57 0-5 0-18t-2-37q-6-8-14-14l11-15-28-5q-46-32-62-32-6 0-28 12-21 11-30 13-7 7 0 13z m459 79q-6 8-26 8-7 0-14-10l-12-15-4-32h4q16-15 29-15 4 0 9 1h3l1 1q5 10 15 15 9 13 9 31 0 16-14 16z m-186 174q-3-1-9 1t-8 2q-17 0-27-19-1-1-3-35 2-3 4-7 29-10 23-10 5 0 16 7t17 7l-4 6q4 1 6 5 1 8 1 14v7q0 12-16 22z m-162-214l2 15q-11 21-18 30-2 2-7 2-25 0-33-14-11-22-5-36 4-8 5-15 31-10 50 0 5 4 10 18h-4z" horiz-adv-x="630" />
<glyph glyph-name="movement" unicode="&#x73;" d="m709 182q-1-24-15-35-3-19-40-46-22-4-24-20-20-20-65-24-11-2-72-3l-4 5q-1 0-5-4t-6-4q-40 7-97 64-4 34-17 34-2 0-6-2-18 18-28 72-9 47-38 64-17 20-49 20-19 0-47-7-29-14-42-50l-17-67q11-21 41-46 2-6 2-8 0-6-6-16l-7-16q-5-2-11-8t-14-17q-16-19-29-19-50 53-50 74 0 12 4 21h-15q-1 16-1 30v27q0 49 6 69l15 7q-6 4-6 10 0 1 11 15 12 13 10 21 5-2 12 7t8 8l6-2q17 49 109 56 1-11 9-30 4 13 21 30 4 1 13 1 6 0 16-2t19-6 18-5 13-3l28-20q44 12 59 60l26 84q4 12-7 33-11 26-12 32-55 35-107 31-4-7-34-19-30-13-34-24-5 1-25 24-18 22-33 22-7 3-7 9 1 2 4 8t7 15q11 10 28 21t37 22q18 10 42 15 7 7 14 7 6 0 19-6t19-7q5 0 11 2l9-7q8 11 20 11 6 0 19-5t19-6l38-24q21-16 19-36 21-6 33-37 19-49 22-53-5-5-5-12 0-4 10-31 1-30-42-109 0-3-3-7t-8-7-8-5l-4-2q0-3 4-7-5-17-34-52-30-35-30-52 0-12 4-21l21-38q13-23 31-31 5-3 28-5 18-5 22-13l-4-3q6-4 10-3 5 13 33 26 29 15 34 26 11 22 11 47 0 45-28 79 2 12 17 26l24 22q0 11 13 30 40-26 61-71t13-94z" horiz-adv-x="765" />
<glyph glyph-name="death" unicode="&#x74;" d="m171 53q4 22 3 44l4 37 15 34-15-6v24q-2 2-3 20-2 13 5 24l-7 32q2 20 4 50t3 68q0 7 4 20t3 20q0 10-6 18l-12-3q-6-2-15-4t-20-6q-5 0-19 6t-23 6q-19 0-32-15h-5q-3-1-11 2l-5 2 4 18q-4 8-4 37 0 22 3 55l27 1q11 0 22-15 1-1 4 1t5 2q7 0 14-10 1 5 14 24 7 0 21-4t21-4q9 0 19 5l-4 36-1 104q0 12 3 30 19-1 50-20 15 19 53 24l4-3q-3-25 1-66 5-61-5-93 22-13 66-13 5 0 14 1t18 2 18 3 14 1q5 0 8-1l5-1q2-6 2-14 0-37-28-62l-1-12q-2-12 9-26-12 4-26 4l-22 6q-12 3-31 3t-48-1q-2-18-3-100 1-5 2-12t-1-18q0-16-10-31 4-7 5-19t2-32q0-10-1-25t-4-35l-3-35t-2-26q0-9 7-24t7-23q0-8-10-8l-3 2q-32 12-43 12-10-2-25-4t-35-7z" horiz-adv-x="474" />
<glyph glyph-name="unlife" unicode="&#x75;" d="m533 124q-6-11-13-4-5 3-10 9t-13 14q-24 6-33 26-3 3-9 6t-13 5-12 6-8 8l-26 19q-16 12-12 28-3 0-5-6t-6-6q-8 7-21 16t-30 19q-7-1-4-9-1-4 0-11l2-7t0-5q0-8-8-11-2-3 1-8t2-9q-2-4-2-6t-2-4-1-4q12-3 11-19 0-27-1-26 1-7 1-14v-14q0-13-14-18-10-2-16-2-10 0-64 16-6 8-5 23 1 11 1 17v8q1 11 11 10 1 0 21-12-1 1-5 7t-13 19q-3 14-18 38 2 43-1 48-2-4-8-4t-10-3q1-2 1-6 0-13-21-22-5 0-8 1 1-6-4-21l-50-39q-19 0-33-8 7-16 5-18-11-7-25-16t-31-23q-6-2-11-16t-16-10q-7 7-7 17 0 3 2 9t2 12 2 14-1 11q2 0 7 14-4 69-1 82 7 4 7 14 0 3-2 13t-2 16q-1 7-3 14t-4 11q-1 6 4 16t5 15-5 11-1 21q0 2 5 6t3 8q3 3 3 6t-5 10-5 8q-2 27-6 46 1 18 1 45t-3 61q-2 14 5 33 14 3 23-6 1-6 9-12t9-12q35-24 38-27 10-8 17-16t11-19q7 0 24-5 1-7 24-16 5-5 13-11t18-16q0-7 8-9 11-1 13-3 2 6 2 12 0 5-2 16t-2 15q0 11 9 17 2 6 15 17 1 4-6 4-12 5-15 18l-6 23q3 7 3 22v4q0 21 10 28 2-1 8-2t15-2q13-2 21-9 10-1 22 7t21 7l4-21q0-17 2-42t3-58l-2-21q-2-14-10-18 0-2 6-8t5-12q3 0 8 5t9 5l6-2q1-1 5 3 2 5-1 11-2 6 1 10t9 8 11 9 11 8 7 9q6 2 24 16 12 10 28 8 1 4 3 9t4 11q1 5 6 9t9 6l9 6t5 7q13 13 42 30 6-1 8-8 7-31-4-72 7-16 7-36 1-14 1-23t2-14q-3-8-4-19t-1-24v-45q9-38 5-53-1-5-3-11t-7-17q16-14 9-54 3-37-3-49 11-8 11-22 0-4-2-14t-2-15q0-6 2-12z m-70 244q-10 9-10 28v32q1 6-7 16-27-19-50-45-29-15-51-44 5-8 22-19 4-7 19-14t18-15q2-10 11-22 4 3 8 3 7 0 17-10t17-11q3 8 1 14 12 46 1 70 2 10 3 13t1 4z m-261-16l-54 42q-2 14-16 20t-27 12q-3 0-7 5t-9 5q-5-3-6-9v-12q1-5 1-7v-4q1-11 2-27t3-40q-5-35-2-42 2-6 2-7 0-3-3-11t-2-13q14 1 28 15 9 10 15 16t9 7q1 1 5 2t8 1 7 3 2 5q5 9 25 23 4 0 8 7t7 7 4-1v3z" horiz-adv-x="535" />
<glyph glyph-name="water" unicode="&#x77;" d="m700 300q0-14-21-30-25-19-28-27-41-31-90-92-1-1-5-1-2 0-7 4t-7 4l-2-2-3-3q0-23-19-42l-47-50-10 9q-5 4-7 20t-5 33q0 2-4 5t-4 5q0 8-18 40-7-2-21-17-7-8-12-11t-10-4-7-4-7-7l-5-10q-15-7-52-58h-4q-5 0-13 5-8 18-13 33t-6 27l6 9 1 5t3 10l3 12t1 9q0 8-4 8-6 0-19-10l-15-11q-4-5-9-11t-14-15l-3 2q-4 0-17-10t-16-10l-3 3v1h-1l-2-2t-10-6q-2-2-2-3t3-5 3-5q1-18-37-41h-13q-9 0-28-3t-28-3q-13 0-21 11 1 10 17 26t19 22q4 4 16 16t31 33q14 16 27 28t26 19q13 3 13-10 1-7 6-10 6 5 17 31l10 34q14 3 14 20l16 21q11 14 21 17 20 0 23-20 6-29 7-31 4-8 11-20t18-26q3 1 7 5t7 8 8 8 5 5q8 1 14 2t10 0q10 0 12-2 10 7 10 11 0 1-5 3t-7 3l-14-1q-1 10 16 25 18 16 19 23l14 12q7 7 15 7 3 0 7-2l7-21 10-42q-3-3-3-11 7-3 16-20t12-18q9 1 20 15 11 15 14 16 1-1 22 1 9 1 21-4 3 2 1 4l-4 5q-3 2-10 11 0 4 9 13t9 11q3 17 37 33 6 2 10 2 8 0 23-4t21-4q8 0 13 3 5 2 11-9z m-560 37q0 4-2 8t-3 4q0 4 7 10t17 16q41 31 90 92 1 1 5 1 2 0 7-4t7-4l2 2 3 3q0 21 19 42l38 41 9 2q5 1 10-2 15-10 22-53-2-6-2-10 0-9 18-40 7 2 20 16 7 8 13 12t10 5 8 3 6 7l5 10q23 11 62 68-2-2 4-30 2 0 1 9l2 6q4-9 8-26t5-43l13-16q7-10 17-7 4 5 10 12t13 14q4-6 15-12-1 3-1 8 0 16 19 29 1 3 11 9t12 9q-1 16 29 33h13q8 0 28 3 7 1 12-3t6-4q13 0 21-11-2-11-17-26l-20-21-36-40q-28-31-53-47-13-3-13 10-1 7-6 10-4-3-7-31l-26-34-22-30-23-28q-11 19-30 51-1 7-6 18t-13 28q-10-3-24-13-10-12-13-13l-20-16q1-10-16-26-18-15-19-22l-14-12q-7-7-15-7-3 0-7 2l-7 21-10 42q3 3 3 11-7 3-16 19-10 18-12 19-11-2-21-15-5-7-8-11t-5-5q-4 4-11 3t-7-6q0-2 1-3 1-2-1-3l-5-2t-5-3-3-4-2-5-6-6l-6-7t-3-5q-3-17-37-33-6-2-10-2-10 0-22 4-5 1-9 5t-6 4q-4 0 4 6l6 6q-5-2-11 8z" horiz-adv-x="828" />
<glyph glyph-name="life" unicode="&#x78;" d="m589 67q-8-17-39-15-21 0-39 8-12 1-39-5-13-2-22-3t-16-2q-18 0-34 11-13-4-46-6-32-2-46-7-4 0-11 2t-14 5-15 4-10 2q-11 1-22-13-10 7-23 7-6 0-18-2t-18-3q-14 0-21 6-16-10-36-10-14 0-42 7 0 11 14 25 15 16 16 20 11 5 29 51 17 43 31 44 6 22 38 34-7 7-7 14 13 18 27 48 1 12 19 36t19 33l10 9q-8 8-17 21t-19 30q-11 18-18 31t-15 20q3 15-11 23-19 11-23 18-30 53-28 79-3 4-6 4-5-6-17-11l-30 56q-16 30-40 38-2 6-2 9 0 8 11 8h17q45-17 93-19 20 0 41 3 5 3 12-4l7-8q2 0 5 3 10-3 33 3 21 7 32 7t21-8q12 3 22 3 16 0 23-7 5-8 10-8 11 11 31 15l166 6q16-2 11-22-17-8-45-53-29-46-45-53l-23-55q-8-15-16-26t-19-18q-2-6-29-45-21-32-21-48 0-15 12-28 8-3 14-31t19-32q1-1 16-1 8 2 13-7 3-11 29-48 22-31 21-53 25-6 40-32l29-48z m-173 517q-15 3-44 0-16-2-26-3t-18-1q-10 1-19 3t-19 5l-35-7q-9 10-15 10-4 0-5-3 2-16 19-35 21-23 23-31 1-16 19-37 11-14 18-22t9-13q13 0 25 22 15 28 24 36 18 8 29 32z m4-445q-13 23-23 41t-19 29q-29 43-54 59-5-4-13-15t-22-32q-20-31-41-29 8-5 8-14 0-8-8-26-2 2-5 2-12 0-12-12 0-7 6-11 6-1 17 2 16-8 43-5 5 1 10 1h9q13 0 21-3 24 14 83 13z" horiz-adv-x="639" />
<glyph glyph-name="truth" unicode="&#x79;" d="m514 568q2-5-46-78l-57-87q0-21-6-67 18-23 20-89v-24t-1-27l-2-44-11-9q-4-16 7-29l14-68q-27 4-79 20-22-7-37-14l-9 10q1 21 9 68-14 48-14 74t11 43q11 1 13 9 3 6-2 11l-1 2v1q-2 6 2 29l-18-5q-2 20-3 44t-1 52q-27 38-57 68l-89 91q-26 26-44 52t-32 49l-25 23q-2 4-11 14t-26 26q-23 24-19 24 32 2 43 0 31-2 51-21 32 13 49 13 29 0 46-48 27-22 61-65-2-10-2-13 0-29 36-29 3 0 18-12l3 2h8q8-11 14-21t11-21q55 25 108 99 9 13 22 31 11 15 27 38t39 53h35q11 0 21-3t19-7q40 9 65 6-9-14-28-38t-48-56q-65-73-84-77z" horiz-adv-x="678" />
</font>
</defs>
</svg>
